<svg width="300" height="400" viewBox="0 0 300 400" fill="none" xmlns="http://www.w3.org/2000/svg">
  <rect width="300" height="400" rx="12" fill="#f3f4f6"/>
  <rect x="20" y="20" width="260" height="360" rx="8" fill="#e5e7eb" stroke="#d1d5db" stroke-width="2"/>
  
  <!-- Card Icon -->
  <circle cx="150" cy="120" r="30" fill="#9ca3af"/>
  <path d="M135 115h30v10h-30v-10zm5-10h20v5h-20v-5zm2.5 25h15v5h-15v-5z" fill="white"/>
  
  <!-- Loading text -->
  <text x="150" y="170" font-family="Arial, sans-serif" font-size="16" font-weight="600" text-anchor="middle" fill="#6b7280">
    Loading Card...
  </text>
  
  <!-- Placeholder content -->
  <rect x="40" y="190" width="220" height="8" rx="4" fill="#d1d5db"/>
  <rect x="40" y="210" width="180" height="8" rx="4" fill="#e5e7eb"/>
  <rect x="40" y="230" width="160" height="8" rx="4" fill="#e5e7eb"/>
  
  <!-- Bottom decoration -->
  <rect x="40" y="320" width="60" height="20" rx="4" fill="#ddd6fe"/>
  <rect x="110" y="320" width="80" height="20" rx="4" fill="#fde68a"/>
  <rect x="200" y="320" width="60" height="20" rx="4" fill="#fed7d7"/>
</svg>